<svg xmlns="http://www.w3.org/2000/svg" viewBox="0 0 1080 1080">
    <metadata>
      <rdf:RDF xmlns:rdf="http://www.w3.org/1999/02/22-rdf-syntax-ns#"
               xmlns:dc="http://purl.org/dc/elements/1.1/"
               xmlns:cc="http://creativecommons.org/ns#">
        <cc:Work rdf:about="">
          <dc:title>hgnim avatar</dc:title>
          <dc:creator>Hgnim</dc:creator>
          <dc:rights>Copyright (C) 2025 Hgnim, All rights reserved.</dc:rights>
          <cc:license rdf:resource="https://github.com/Hgnim/Hgnim/blob/main/LICENSE"/>
        </cc:Work>
      </rdf:RDF>
    </metadata>

    <path fill="#041eaa" d="M311 747c31 64 67 103 96 139 48 57 101 101 162 142 23 16 55 45 82 51 21 6 48 1 70 1-64-53-143-84-204-143-162-158-300-421-186-642 37-71 82-134 165-148 29-6 60 2 88 12 143 54 169 217 125 348-22 65-75 140-152 140-51 0-109-35-126-84-14-41 7-103 35-133q31-30 69-48c4-2 25-9 19-16-4-4-22-1-28-1q-49 2-89 32c-73 53-93 183-11 237 33 22 75 27 114 27 63 0 119-4 169-49 25-22 40-58 51-89 35-93 37-223-25-306-54-72-142-87-226-87-51 0-100 6-143 36-51 36-85 103-108 159-35 85-29 195-3 282 14 47 25 76 56 140"/>
    <path fill="#161618" d="M443 289c-12 7 2 22 13 16 13-8-2-22-13-16m151 1c-12 5-3 20 8 16 13-6 2-20-8-16M455 503c-10 4-1 19 5 22 14 8 50 13 64 4 5-4 3-16-2-18-13-6-35 2-50-3-5-2-11-7-17-5m462 577c-59-110-135-209-184-325q-16-41-25-86c-1-5-4-28-14-21-7 5-5 21-5 29 2 28 13 58 24 84 35 87 86 166 135 245l32 52c4 6 8 17 14 21 5 3 17 1 23 1m-728 0c6 0 17 2 21-1 5-4 7-15 10-20l22-52c20-50 45-99 62-150 9-27 12-55 19-82q9-36 10-74c0-7 0-21-7-26-8-5-10 16-11 20-6 24-7 49-12 74-16 81-48 153-79 229-11 27-27 54-35 82"/>
</svg>